<svg xmlns="http://www.w3.org/2000/svg" fill="none" viewBox="-1 -1 28 28" height="28" width="28"><g id="blank-calendar--blank-calendar-date-day-month-empty"><path id="Vector" stroke="#15a7a5" stroke-linecap="round" stroke-linejoin="round" d="M2.7857142857142856 3.7142857142857144c-0.4925514285714286 0 -0.9649157142857143 0.19566857142857141 -1.3131987142857144 0.5439385714285714C1.1242344285714287 4.6065128571428575 0.9285714285714286 5.078877142857143 0.9285714285714286 5.571428571428571v17.642857142857142c0 0.49251428571428574 0.19566300000000003 0.9649714285714285 0.5439441428571429 1.3131857142857142 0.348283 0.3482142857142857 0.8206472857142857 0.5439571428571429 1.3131987142857144 0.5439571428571429h20.42857142857143c0.49251428571428574 0 0.9649714285714285 -0.19574285714285714 1.3131857142857142 -0.5439571428571429s0.5439571428571429 -0.8206714285714286 0.5439571428571429 -1.3131857142857142V5.571428571428571c0 -0.4925514285714286 -0.19574285714285714 -0.9649157142857143 -0.5439571428571429 -1.3132042857142858C24.179257142857146 3.909954285714286 23.7068 3.7142857142857144 23.214285714285715 3.7142857142857144h-3.7142857142857144" stroke-width="2"></path><path id="Vector_2" stroke="#15a7a5" stroke-linecap="round" stroke-linejoin="round" d="M0.9285714285714286 10.214285714285715h24.142857142857142" stroke-width="2"></path><path id="Vector_3" stroke="#15a7a5" stroke-linecap="round" stroke-linejoin="round" d="M6.5 0.9285714285714286v5.571428571428571" stroke-width="2"></path><path id="Vector_4" stroke="#15a7a5" stroke-linecap="round" stroke-linejoin="round" d="M19.5 0.9285714285714286v5.571428571428571" stroke-width="2"></path><path id="Vector_5" stroke="#15a7a5" stroke-linecap="round" stroke-linejoin="round" d="M6.5 3.7142857142857144h9.285714285714286" stroke-width="2"></path></g></svg>