<?xml version="1.0" encoding="utf-8"?>
<!-- Generator: Adobe Illustrator 27.8.1, SVG Export Plug-In . SVG Version: 6.00 Build 0)  -->
<svg version="1.1" id="격리_모드" xmlns="http://www.w3.org/2000/svg" xmlns:xlink="http://www.w3.org/1999/xlink" x="0px"
	 y="0px" viewBox="0 0 1000 1000" style="enable-background:new 0 0 1000 1000;" xml:space="preserve">
<style type="text/css">
	.st0{fill:#6E6E6E;}
</style>
<g>
	<polygon class="st0" points="601.8,559.6 619.2,559.6 633.7,516.4 590.3,516.4 	"/>
	<polygon class="st0" points="492.5,516.4 481,559.6 519,559.6 507.5,516.4 	"/>
	<polygon class="st0" points="380,559.6 398.2,559.6 409.7,516.4 365.3,516.4 	"/>
	<path class="st0" d="M500,0C223.9,0,0,223.9,0,500s223.9,500,500,500s500-223.9,500-500S776.1,0,500,0z M788.9,559.6
		c17.9,0,32.5,14.6,32.5,32.5c0,17.9-14.6,32.5-32.5,32.5H681.7L643,740c-5.6,16.7-21.6,27.8-39.2,27.2
		c-17.6-0.6-32.8-12.6-37.4-29.7l-30.1-112.9h-72.6l-30.1,112.9c-4.5,17-19.7,29.1-37.3,29.7c-0.5,0-0.9,0-1.4,0
		c-17.1,0-32.3-10.8-37.8-27.1l-39.4-115.6h-98.8c-17.9,0-32.5-14.6-32.5-32.5c0-17.9,14.6-32.5,32.5-32.5h76.6l-14.7-43.1h-61.9
		c-17.9,0-32.5-14.6-32.5-32.5c0-17.9,14.6-32.5,32.5-32.5h39.7L226.7,358c-7.1-20.9,4-43.6,24.9-50.8c20.9-7.1,43.6,4,50.8,24.9
		l40.7,119.3H427l34.3-129c4.7-17.5,20.5-29.7,38.7-29.7s34,12.2,38.7,29.7l34.3,129h82.5l40-119.1c7-20.9,29.7-32.2,50.7-25.2
		c20.9,7,32.2,29.7,25.2,50.7l-31.5,93.6h49c17.9,0,32.5,14.6,32.5,32.5c0,17.9-14.6,32.5-32.5,32.5H718l-14.5,43.1H788.9z"/>
</g>
</svg>
