<svg width="44" height="44" viewBox="0 0 44 44" fill="none" xmlns="http://www.w3.org/2000/svg">
<rect x="43.5" y="43.5" width="43" height="43" rx="21.5" transform="rotate(-180 43.5 43.5)" stroke="#FF0000"/>
<path fill-rule="evenodd" clip-rule="evenodd" d="M22 31.75C21.8011 31.75 21.6103 31.671 21.4697 31.5303C21.329 31.3897 21.25 31.1989 21.25 31V14.81L15.03 21.03C14.9613 21.1037 14.8785 21.1628 14.7865 21.2038C14.6945 21.2448 14.5952 21.2668 14.4945 21.2686C14.3938 21.2704 14.2938 21.2518 14.2004 21.2141C14.107 21.1764 14.0222 21.1203 13.951 21.049C13.8797 20.9778 13.8236 20.893 13.7859 20.7996C13.7482 20.7062 13.7296 20.6062 13.7314 20.5055C13.7332 20.4048 13.7552 20.3055 13.7962 20.2135C13.8372 20.1215 13.8963 20.0387 13.97 19.97L21.47 12.47C21.6106 12.3295 21.8012 12.2507 22 12.2507C22.1987 12.2507 22.3894 12.3295 22.53 12.47L30.03 19.97C30.1037 20.0387 30.1628 20.1215 30.2038 20.2135C30.2448 20.3055 30.2668 20.4048 30.2686 20.5055C30.2704 20.6062 30.2518 20.7062 30.2141 20.7996C30.1764 20.893 30.1203 20.9778 30.049 21.049C29.9778 21.1203 29.893 21.1764 29.7996 21.2141C29.7062 21.2518 29.6062 21.2704 29.5055 21.2686C29.4048 21.2668 29.3055 21.2448 29.2135 21.2038C29.1215 21.1628 29.0387 21.1037 28.97 21.03L22.75 14.81V31C22.75 31.1989 22.671 31.3897 22.5303 31.5303C22.3897 31.671 22.1989 31.75 22 31.75Z" fill="#FF0000"/>
</svg>
