<svg width="44" height="44" viewBox="0 0 44 44" fill="none" xmlns="http://www.w3.org/2000/svg">
<rect x="0.5" y="0.5" width="43" height="43" rx="21.5" stroke="#1400FF"/>
<path fill-rule="evenodd" clip-rule="evenodd" d="M22 12.25C22.1989 12.25 22.3897 12.329 22.5303 12.4697C22.671 12.6103 22.75 12.8011 22.75 13V29.19L28.97 22.97C29.0387 22.8963 29.1215 22.8372 29.2135 22.7962C29.3055 22.7552 29.4048 22.7332 29.5055 22.7314C29.6062 22.7296 29.7062 22.7482 29.7996 22.7859C29.893 22.8236 29.9778 22.8797 30.049 22.951C30.1203 23.0222 30.1764 23.107 30.2141 23.2004C30.2518 23.2938 30.2704 23.3938 30.2686 23.4945C30.2668 23.5952 30.2448 23.6945 30.2038 23.7865C30.1628 23.8785 30.1037 23.9613 30.03 24.03L22.53 31.53C22.3894 31.6705 22.1988 31.7493 22 31.7493C21.8013 31.7493 21.6106 31.6705 21.47 31.53L13.97 24.03C13.8963 23.9613 13.8372 23.8785 13.7962 23.7865C13.7552 23.6945 13.7332 23.5952 13.7314 23.4945C13.7296 23.3938 13.7482 23.2938 13.7859 23.2004C13.8236 23.107 13.8797 23.0222 13.951 22.951C14.0222 22.8797 14.107 22.8236 14.2004 22.7859C14.2938 22.7482 14.3938 22.7296 14.4945 22.7314C14.5952 22.7332 14.6945 22.7552 14.7865 22.7962C14.8785 22.8372 14.9613 22.8963 15.03 22.97L21.25 29.19V13C21.25 12.8011 21.329 12.6103 21.4697 12.4697C21.6103 12.329 21.8011 12.25 22 12.25Z" fill="#1400FF"/>
</svg>
